<mxfile host="app.diagrams.net" agent="Mozilla/5.0 (Windows NT 10.0; Win64; x64) AppleWebKit/537.36 (KHTML, like Gecko) Chrome/139.0.0.0 Safari/537.36" version="28.1.1">
  <diagram name="페이지-1" id="gqqQwGijCJYy_vpQsocl">
    <mxGraphModel dx="613" dy="908" grid="1" gridSize="10" guides="1" tooltips="1" connect="1" arrows="1" fold="1" page="1" pageScale="1" pageWidth="827" pageHeight="1169" math="0" shadow="0">
      <root>
        <mxCell id="0" />
        <mxCell id="1" parent="0" />
        <mxCell id="VcVG_XtGqPVx2uecxMPq-1" value="users" style="rounded=0;whiteSpace=wrap;html=1;" vertex="1" parent="1">
          <mxGeometry x="1250" y="140" width="120" height="60" as="geometry" />
        </mxCell>
        <mxCell id="VcVG_XtGqPVx2uecxMPq-2" value="posts" style="rounded=0;whiteSpace=wrap;html=1;" vertex="1" parent="1">
          <mxGeometry x="1250" y="500" width="120" height="60" as="geometry" />
        </mxCell>
        <mxCell id="VcVG_XtGqPVx2uecxMPq-3" value="categories" style="rounded=0;whiteSpace=wrap;html=1;" vertex="1" parent="1">
          <mxGeometry x="1250" y="820" width="120" height="60" as="geometry" />
        </mxCell>
        <mxCell id="VcVG_XtGqPVx2uecxMPq-4" value="views" style="rounded=0;whiteSpace=wrap;html=1;" vertex="1" parent="1">
          <mxGeometry x="1260" y="1040" width="120" height="60" as="geometry" />
        </mxCell>
        <mxCell id="VcVG_XtGqPVx2uecxMPq-5" value="hashtags" style="rounded=0;whiteSpace=wrap;html=1;" vertex="1" parent="1">
          <mxGeometry x="1260" y="1290" width="120" height="60" as="geometry" />
        </mxCell>
        <mxCell id="VcVG_XtGqPVx2uecxMPq-7" value="reports" style="rounded=0;whiteSpace=wrap;html=1;" vertex="1" parent="1">
          <mxGeometry x="1260" y="1920" width="120" height="60" as="geometry" />
        </mxCell>
        <mxCell id="VcVG_XtGqPVx2uecxMPq-8" value="followers" style="rounded=0;whiteSpace=wrap;html=1;" vertex="1" parent="1">
          <mxGeometry x="1260" y="2180" width="120" height="60" as="geometry" />
        </mxCell>
        <mxCell id="VcVG_XtGqPVx2uecxMPq-9" value="email" style="ellipse;whiteSpace=wrap;html=1;" vertex="1" parent="1">
          <mxGeometry x="1250" y="230" width="120" height="40" as="geometry" />
        </mxCell>
        <mxCell id="VcVG_XtGqPVx2uecxMPq-10" value="password" style="ellipse;whiteSpace=wrap;html=1;" vertex="1" parent="1">
          <mxGeometry x="1410" y="180" width="120" height="40" as="geometry" />
        </mxCell>
        <mxCell id="VcVG_XtGqPVx2uecxMPq-11" value="name" style="ellipse;whiteSpace=wrap;html=1;" vertex="1" parent="1">
          <mxGeometry x="1180" y="80" width="120" height="40" as="geometry" />
        </mxCell>
        <mxCell id="VcVG_XtGqPVx2uecxMPq-12" value="age" style="ellipse;whiteSpace=wrap;html=1;" vertex="1" parent="1">
          <mxGeometry x="1090" y="150" width="120" height="40" as="geometry" />
        </mxCell>
        <mxCell id="VcVG_XtGqPVx2uecxMPq-13" value="id" style="ellipse;whiteSpace=wrap;html=1;align=center;fontStyle=4;" vertex="1" parent="1">
          <mxGeometry x="1360" y="80" width="100" height="40" as="geometry" />
        </mxCell>
        <mxCell id="VcVG_XtGqPVx2uecxMPq-14" value="" style="endArrow=none;html=1;rounded=0;" edge="1" parent="1" target="VcVG_XtGqPVx2uecxMPq-12">
          <mxGeometry relative="1" as="geometry">
            <mxPoint x="1250" y="169.5" as="sourcePoint" />
            <mxPoint x="1410" y="169.5" as="targetPoint" />
          </mxGeometry>
        </mxCell>
        <mxCell id="VcVG_XtGqPVx2uecxMPq-15" value="" style="endArrow=none;html=1;rounded=0;exitX=0.58;exitY=0.989;exitDx=0;exitDy=0;exitPerimeter=0;" edge="1" parent="1" source="VcVG_XtGqPVx2uecxMPq-13">
          <mxGeometry relative="1" as="geometry">
            <mxPoint x="1410" y="160" as="sourcePoint" />
            <mxPoint x="1370" y="160.5" as="targetPoint" />
          </mxGeometry>
        </mxCell>
        <mxCell id="VcVG_XtGqPVx2uecxMPq-16" value="" style="endArrow=none;html=1;rounded=0;exitX=0;exitY=0.5;exitDx=0;exitDy=0;" edge="1" parent="1" source="VcVG_XtGqPVx2uecxMPq-10">
          <mxGeometry relative="1" as="geometry">
            <mxPoint x="1418" y="150" as="sourcePoint" />
            <mxPoint x="1370" y="190.5" as="targetPoint" />
          </mxGeometry>
        </mxCell>
        <mxCell id="VcVG_XtGqPVx2uecxMPq-17" value="" style="endArrow=none;html=1;rounded=0;" edge="1" parent="1" target="VcVG_XtGqPVx2uecxMPq-9">
          <mxGeometry relative="1" as="geometry">
            <mxPoint x="1330" y="200" as="sourcePoint" />
            <mxPoint x="1350" y="220" as="targetPoint" />
          </mxGeometry>
        </mxCell>
        <mxCell id="VcVG_XtGqPVx2uecxMPq-18" value="" style="endArrow=none;html=1;rounded=0;exitX=1;exitY=1;exitDx=0;exitDy=0;" edge="1" parent="1" source="VcVG_XtGqPVx2uecxMPq-11">
          <mxGeometry relative="1" as="geometry">
            <mxPoint x="1348" y="99.5" as="sourcePoint" />
            <mxPoint x="1300" y="140" as="targetPoint" />
          </mxGeometry>
        </mxCell>
        <mxCell id="VcVG_XtGqPVx2uecxMPq-19" value="users" style="shape=table;startSize=30;container=1;collapsible=1;childLayout=tableLayout;fixedRows=1;rowLines=0;fontStyle=1;align=center;resizeLast=1;html=1;" vertex="1" parent="1">
          <mxGeometry x="870" y="30" width="180" height="180" as="geometry" />
        </mxCell>
        <mxCell id="VcVG_XtGqPVx2uecxMPq-20" value="" style="shape=tableRow;horizontal=0;startSize=0;swimlaneHead=0;swimlaneBody=0;fillColor=none;collapsible=0;dropTarget=0;points=[[0,0.5],[1,0.5]];portConstraint=eastwest;top=0;left=0;right=0;bottom=1;" vertex="1" parent="VcVG_XtGqPVx2uecxMPq-19">
          <mxGeometry y="30" width="180" height="30" as="geometry" />
        </mxCell>
        <mxCell id="VcVG_XtGqPVx2uecxMPq-21" value="PK" style="shape=partialRectangle;connectable=0;fillColor=none;top=0;left=0;bottom=0;right=0;fontStyle=1;overflow=hidden;whiteSpace=wrap;html=1;" vertex="1" parent="VcVG_XtGqPVx2uecxMPq-20">
          <mxGeometry width="30" height="30" as="geometry">
            <mxRectangle width="30" height="30" as="alternateBounds" />
          </mxGeometry>
        </mxCell>
        <mxCell id="VcVG_XtGqPVx2uecxMPq-22" value="UniqueID" style="shape=partialRectangle;connectable=0;fillColor=none;top=0;left=0;bottom=0;right=0;align=left;spacingLeft=6;fontStyle=5;overflow=hidden;whiteSpace=wrap;html=1;" vertex="1" parent="VcVG_XtGqPVx2uecxMPq-20">
          <mxGeometry x="30" width="150" height="30" as="geometry">
            <mxRectangle width="150" height="30" as="alternateBounds" />
          </mxGeometry>
        </mxCell>
        <mxCell id="VcVG_XtGqPVx2uecxMPq-23" value="" style="shape=tableRow;horizontal=0;startSize=0;swimlaneHead=0;swimlaneBody=0;fillColor=none;collapsible=0;dropTarget=0;points=[[0,0.5],[1,0.5]];portConstraint=eastwest;top=0;left=0;right=0;bottom=0;" vertex="1" parent="VcVG_XtGqPVx2uecxMPq-19">
          <mxGeometry y="60" width="180" height="30" as="geometry" />
        </mxCell>
        <mxCell id="VcVG_XtGqPVx2uecxMPq-24" value="" style="shape=partialRectangle;connectable=0;fillColor=none;top=0;left=0;bottom=0;right=0;editable=1;overflow=hidden;whiteSpace=wrap;html=1;" vertex="1" parent="VcVG_XtGqPVx2uecxMPq-23">
          <mxGeometry width="30" height="30" as="geometry">
            <mxRectangle width="30" height="30" as="alternateBounds" />
          </mxGeometry>
        </mxCell>
        <mxCell id="VcVG_XtGqPVx2uecxMPq-25" value="name" style="shape=partialRectangle;connectable=0;fillColor=none;top=0;left=0;bottom=0;right=0;align=left;spacingLeft=6;overflow=hidden;whiteSpace=wrap;html=1;" vertex="1" parent="VcVG_XtGqPVx2uecxMPq-23">
          <mxGeometry x="30" width="150" height="30" as="geometry">
            <mxRectangle width="150" height="30" as="alternateBounds" />
          </mxGeometry>
        </mxCell>
        <mxCell id="VcVG_XtGqPVx2uecxMPq-26" value="" style="shape=tableRow;horizontal=0;startSize=0;swimlaneHead=0;swimlaneBody=0;fillColor=none;collapsible=0;dropTarget=0;points=[[0,0.5],[1,0.5]];portConstraint=eastwest;top=0;left=0;right=0;bottom=0;" vertex="1" parent="VcVG_XtGqPVx2uecxMPq-19">
          <mxGeometry y="90" width="180" height="30" as="geometry" />
        </mxCell>
        <mxCell id="VcVG_XtGqPVx2uecxMPq-27" value="" style="shape=partialRectangle;connectable=0;fillColor=none;top=0;left=0;bottom=0;right=0;editable=1;overflow=hidden;whiteSpace=wrap;html=1;" vertex="1" parent="VcVG_XtGqPVx2uecxMPq-26">
          <mxGeometry width="30" height="30" as="geometry">
            <mxRectangle width="30" height="30" as="alternateBounds" />
          </mxGeometry>
        </mxCell>
        <mxCell id="VcVG_XtGqPVx2uecxMPq-28" value="email" style="shape=partialRectangle;connectable=0;fillColor=none;top=0;left=0;bottom=0;right=0;align=left;spacingLeft=6;overflow=hidden;whiteSpace=wrap;html=1;" vertex="1" parent="VcVG_XtGqPVx2uecxMPq-26">
          <mxGeometry x="30" width="150" height="30" as="geometry">
            <mxRectangle width="150" height="30" as="alternateBounds" />
          </mxGeometry>
        </mxCell>
        <mxCell id="VcVG_XtGqPVx2uecxMPq-32" value="" style="shape=tableRow;horizontal=0;startSize=0;swimlaneHead=0;swimlaneBody=0;fillColor=none;collapsible=0;dropTarget=0;points=[[0,0.5],[1,0.5]];portConstraint=eastwest;top=0;left=0;right=0;bottom=0;" vertex="1" parent="VcVG_XtGqPVx2uecxMPq-19">
          <mxGeometry y="120" width="180" height="30" as="geometry" />
        </mxCell>
        <mxCell id="VcVG_XtGqPVx2uecxMPq-33" value="" style="shape=partialRectangle;connectable=0;fillColor=none;top=0;left=0;bottom=0;right=0;editable=1;overflow=hidden;whiteSpace=wrap;html=1;" vertex="1" parent="VcVG_XtGqPVx2uecxMPq-32">
          <mxGeometry width="30" height="30" as="geometry">
            <mxRectangle width="30" height="30" as="alternateBounds" />
          </mxGeometry>
        </mxCell>
        <mxCell id="VcVG_XtGqPVx2uecxMPq-34" value="age" style="shape=partialRectangle;connectable=0;fillColor=none;top=0;left=0;bottom=0;right=0;align=left;spacingLeft=6;overflow=hidden;whiteSpace=wrap;html=1;" vertex="1" parent="VcVG_XtGqPVx2uecxMPq-32">
          <mxGeometry x="30" width="150" height="30" as="geometry">
            <mxRectangle width="150" height="30" as="alternateBounds" />
          </mxGeometry>
        </mxCell>
        <mxCell id="VcVG_XtGqPVx2uecxMPq-29" value="" style="shape=tableRow;horizontal=0;startSize=0;swimlaneHead=0;swimlaneBody=0;fillColor=none;collapsible=0;dropTarget=0;points=[[0,0.5],[1,0.5]];portConstraint=eastwest;top=0;left=0;right=0;bottom=0;" vertex="1" parent="VcVG_XtGqPVx2uecxMPq-19">
          <mxGeometry y="150" width="180" height="30" as="geometry" />
        </mxCell>
        <mxCell id="VcVG_XtGqPVx2uecxMPq-30" value="" style="shape=partialRectangle;connectable=0;fillColor=none;top=0;left=0;bottom=0;right=0;editable=1;overflow=hidden;whiteSpace=wrap;html=1;" vertex="1" parent="VcVG_XtGqPVx2uecxMPq-29">
          <mxGeometry width="30" height="30" as="geometry">
            <mxRectangle width="30" height="30" as="alternateBounds" />
          </mxGeometry>
        </mxCell>
        <mxCell id="VcVG_XtGqPVx2uecxMPq-31" value="password" style="shape=partialRectangle;connectable=0;fillColor=none;top=0;left=0;bottom=0;right=0;align=left;spacingLeft=6;overflow=hidden;whiteSpace=wrap;html=1;" vertex="1" parent="VcVG_XtGqPVx2uecxMPq-29">
          <mxGeometry x="30" width="150" height="30" as="geometry">
            <mxRectangle width="150" height="30" as="alternateBounds" />
          </mxGeometry>
        </mxCell>
        <mxCell id="VcVG_XtGqPVx2uecxMPq-38" value="users_id(FK)" style="ellipse;whiteSpace=wrap;html=1;align=center;" vertex="1" parent="1">
          <mxGeometry x="1100" y="565" width="100" height="40" as="geometry" />
        </mxCell>
        <mxCell id="VcVG_XtGqPVx2uecxMPq-39" value="category" style="ellipse;whiteSpace=wrap;html=1;align=center;" vertex="1" parent="1">
          <mxGeometry x="1420" y="520" width="100" height="40" as="geometry" />
        </mxCell>
        <mxCell id="VcVG_XtGqPVx2uecxMPq-40" value="categories_id(FK)" style="ellipse;whiteSpace=wrap;html=1;align=center;" vertex="1" parent="1">
          <mxGeometry x="1080" y="510" width="100" height="40" as="geometry" />
        </mxCell>
        <mxCell id="VcVG_XtGqPVx2uecxMPq-41" value="view" style="ellipse;whiteSpace=wrap;html=1;align=center;" vertex="1" parent="1">
          <mxGeometry x="1241" y="605" width="100" height="40" as="geometry" />
        </mxCell>
        <mxCell id="VcVG_XtGqPVx2uecxMPq-42" value="contents" style="ellipse;whiteSpace=wrap;html=1;align=center;" vertex="1" parent="1">
          <mxGeometry x="1270" y="440" width="100" height="40" as="geometry" />
        </mxCell>
        <mxCell id="VcVG_XtGqPVx2uecxMPq-43" value="title" style="ellipse;whiteSpace=wrap;html=1;align=center;" vertex="1" parent="1">
          <mxGeometry x="1160" y="450" width="100" height="40" as="geometry" />
        </mxCell>
        <mxCell id="VcVG_XtGqPVx2uecxMPq-45" value="createat" style="ellipse;whiteSpace=wrap;html=1;align=center;" vertex="1" parent="1">
          <mxGeometry x="1370" y="585" width="100" height="40" as="geometry" />
        </mxCell>
        <mxCell id="VcVG_XtGqPVx2uecxMPq-46" value="PK" style="ellipse;whiteSpace=wrap;html=1;align=center;fontStyle=4;" vertex="1" parent="1">
          <mxGeometry x="1390" y="440" width="100" height="40" as="geometry" />
        </mxCell>
        <mxCell id="VcVG_XtGqPVx2uecxMPq-50" value="" style="endArrow=none;html=1;rounded=0;exitX=0.426;exitY=1.011;exitDx=0;exitDy=0;exitPerimeter=0;entryX=1;entryY=0.25;entryDx=0;entryDy=0;" edge="1" parent="1" source="VcVG_XtGqPVx2uecxMPq-46" target="VcVG_XtGqPVx2uecxMPq-2">
          <mxGeometry relative="1" as="geometry">
            <mxPoint x="1418" y="479.75" as="sourcePoint" />
            <mxPoint x="1370" y="520.25" as="targetPoint" />
          </mxGeometry>
        </mxCell>
        <mxCell id="VcVG_XtGqPVx2uecxMPq-51" value="" style="endArrow=none;html=1;rounded=0;exitX=0.234;exitY=0.911;exitDx=0;exitDy=0;exitPerimeter=0;entryX=1;entryY=0.75;entryDx=0;entryDy=0;" edge="1" parent="1" source="VcVG_XtGqPVx2uecxMPq-39" target="VcVG_XtGqPVx2uecxMPq-2">
          <mxGeometry relative="1" as="geometry">
            <mxPoint x="1433" y="554" as="sourcePoint" />
            <mxPoint x="1370" y="589" as="targetPoint" />
          </mxGeometry>
        </mxCell>
        <mxCell id="VcVG_XtGqPVx2uecxMPq-52" value="" style="endArrow=none;html=1;rounded=0;exitX=0.346;exitY=0.029;exitDx=0;exitDy=0;exitPerimeter=0;entryX=0.75;entryY=1;entryDx=0;entryDy=0;" edge="1" parent="1" source="VcVG_XtGqPVx2uecxMPq-45" target="VcVG_XtGqPVx2uecxMPq-2">
          <mxGeometry relative="1" as="geometry">
            <mxPoint x="1410" y="571" as="sourcePoint" />
            <mxPoint x="1337" y="560" as="targetPoint" />
          </mxGeometry>
        </mxCell>
        <mxCell id="VcVG_XtGqPVx2uecxMPq-53" value="" style="endArrow=none;html=1;rounded=0;exitX=0.5;exitY=0;exitDx=0;exitDy=0;entryX=0.25;entryY=1;entryDx=0;entryDy=0;" edge="1" parent="1" source="VcVG_XtGqPVx2uecxMPq-41" target="VcVG_XtGqPVx2uecxMPq-2">
          <mxGeometry relative="1" as="geometry">
            <mxPoint x="1352.5" y="586" as="sourcePoint" />
            <mxPoint x="1287.5" y="560" as="targetPoint" />
          </mxGeometry>
        </mxCell>
        <mxCell id="VcVG_XtGqPVx2uecxMPq-54" value="" style="endArrow=none;html=1;rounded=0;exitX=1;exitY=0;exitDx=0;exitDy=0;entryX=0;entryY=0.75;entryDx=0;entryDy=0;" edge="1" parent="1" source="VcVG_XtGqPVx2uecxMPq-38" target="VcVG_XtGqPVx2uecxMPq-2">
          <mxGeometry relative="1" as="geometry">
            <mxPoint x="1315" y="560" as="sourcePoint" />
            <mxPoint x="1250" y="534" as="targetPoint" />
          </mxGeometry>
        </mxCell>
        <mxCell id="VcVG_XtGqPVx2uecxMPq-56" value="" style="endArrow=none;html=1;rounded=0;exitX=1;exitY=0.5;exitDx=0;exitDy=0;entryX=0;entryY=0.25;entryDx=0;entryDy=0;" edge="1" parent="1" source="VcVG_XtGqPVx2uecxMPq-40" target="VcVG_XtGqPVx2uecxMPq-2">
          <mxGeometry relative="1" as="geometry">
            <mxPoint x="1210" y="524" as="sourcePoint" />
            <mxPoint x="1242" y="500" as="targetPoint" />
          </mxGeometry>
        </mxCell>
        <mxCell id="VcVG_XtGqPVx2uecxMPq-57" value="" style="endArrow=none;html=1;rounded=0;exitX=0.76;exitY=0.975;exitDx=0;exitDy=0;entryX=0.25;entryY=0;entryDx=0;entryDy=0;exitPerimeter=0;" edge="1" parent="1" source="VcVG_XtGqPVx2uecxMPq-43" target="VcVG_XtGqPVx2uecxMPq-2">
          <mxGeometry relative="1" as="geometry">
            <mxPoint x="1230" y="540" as="sourcePoint" />
            <mxPoint x="1268" y="544" as="targetPoint" />
          </mxGeometry>
        </mxCell>
        <mxCell id="VcVG_XtGqPVx2uecxMPq-58" value="" style="endArrow=none;html=1;rounded=0;exitX=0.75;exitY=0;exitDx=0;exitDy=0;entryX=0.5;entryY=1;entryDx=0;entryDy=0;" edge="1" parent="1" source="VcVG_XtGqPVx2uecxMPq-2" target="VcVG_XtGqPVx2uecxMPq-42">
          <mxGeometry relative="1" as="geometry">
            <mxPoint x="1246" y="499" as="sourcePoint" />
            <mxPoint x="1290" y="510" as="targetPoint" />
          </mxGeometry>
        </mxCell>
        <mxCell id="VcVG_XtGqPVx2uecxMPq-59" value="posts" style="shape=table;startSize=30;container=1;collapsible=1;childLayout=tableLayout;fixedRows=1;rowLines=0;fontStyle=1;align=center;resizeLast=1;html=1;" vertex="1" parent="1">
          <mxGeometry x="870" y="380" width="180" height="270" as="geometry" />
        </mxCell>
        <mxCell id="VcVG_XtGqPVx2uecxMPq-133" value="" style="shape=tableRow;horizontal=0;startSize=0;swimlaneHead=0;swimlaneBody=0;fillColor=none;collapsible=0;dropTarget=0;points=[[0,0.5],[1,0.5]];portConstraint=eastwest;top=0;left=0;right=0;bottom=1;" vertex="1" parent="VcVG_XtGqPVx2uecxMPq-59">
          <mxGeometry y="30" width="180" height="30" as="geometry" />
        </mxCell>
        <mxCell id="VcVG_XtGqPVx2uecxMPq-134" value="PK" style="shape=partialRectangle;connectable=0;fillColor=none;top=0;left=0;bottom=0;right=0;fontStyle=1;overflow=hidden;whiteSpace=wrap;html=1;" vertex="1" parent="VcVG_XtGqPVx2uecxMPq-133">
          <mxGeometry width="30" height="30" as="geometry">
            <mxRectangle width="30" height="30" as="alternateBounds" />
          </mxGeometry>
        </mxCell>
        <mxCell id="VcVG_XtGqPVx2uecxMPq-135" value="id" style="shape=partialRectangle;connectable=0;fillColor=none;top=0;left=0;bottom=0;right=0;align=left;spacingLeft=6;fontStyle=5;overflow=hidden;whiteSpace=wrap;html=1;" vertex="1" parent="VcVG_XtGqPVx2uecxMPq-133">
          <mxGeometry x="30" width="150" height="30" as="geometry">
            <mxRectangle width="150" height="30" as="alternateBounds" />
          </mxGeometry>
        </mxCell>
        <mxCell id="VcVG_XtGqPVx2uecxMPq-136" value="" style="shape=tableRow;horizontal=0;startSize=0;swimlaneHead=0;swimlaneBody=0;fillColor=none;collapsible=0;dropTarget=0;points=[[0,0.5],[1,0.5]];portConstraint=eastwest;top=0;left=0;right=0;bottom=1;" vertex="1" parent="VcVG_XtGqPVx2uecxMPq-59">
          <mxGeometry y="60" width="180" height="30" as="geometry" />
        </mxCell>
        <mxCell id="VcVG_XtGqPVx2uecxMPq-137" value="FK" style="shape=partialRectangle;connectable=0;fillColor=none;top=0;left=0;bottom=0;right=0;fontStyle=1;overflow=hidden;whiteSpace=wrap;html=1;" vertex="1" parent="VcVG_XtGqPVx2uecxMPq-136">
          <mxGeometry width="30" height="30" as="geometry">
            <mxRectangle width="30" height="30" as="alternateBounds" />
          </mxGeometry>
        </mxCell>
        <mxCell id="VcVG_XtGqPVx2uecxMPq-138" value="users_id" style="shape=partialRectangle;connectable=0;fillColor=none;top=0;left=0;bottom=0;right=0;align=left;spacingLeft=6;fontStyle=5;overflow=hidden;whiteSpace=wrap;html=1;" vertex="1" parent="VcVG_XtGqPVx2uecxMPq-136">
          <mxGeometry x="30" width="150" height="30" as="geometry">
            <mxRectangle width="150" height="30" as="alternateBounds" />
          </mxGeometry>
        </mxCell>
        <mxCell id="VcVG_XtGqPVx2uecxMPq-60" value="" style="shape=tableRow;horizontal=0;startSize=0;swimlaneHead=0;swimlaneBody=0;fillColor=none;collapsible=0;dropTarget=0;points=[[0,0.5],[1,0.5]];portConstraint=eastwest;top=0;left=0;right=0;bottom=1;" vertex="1" parent="VcVG_XtGqPVx2uecxMPq-59">
          <mxGeometry y="90" width="180" height="30" as="geometry" />
        </mxCell>
        <mxCell id="VcVG_XtGqPVx2uecxMPq-61" value="FK" style="shape=partialRectangle;connectable=0;fillColor=none;top=0;left=0;bottom=0;right=0;fontStyle=1;overflow=hidden;whiteSpace=wrap;html=1;" vertex="1" parent="VcVG_XtGqPVx2uecxMPq-60">
          <mxGeometry width="30" height="30" as="geometry">
            <mxRectangle width="30" height="30" as="alternateBounds" />
          </mxGeometry>
        </mxCell>
        <mxCell id="VcVG_XtGqPVx2uecxMPq-62" value="categories" style="shape=partialRectangle;connectable=0;fillColor=none;top=0;left=0;bottom=0;right=0;align=left;spacingLeft=6;fontStyle=5;overflow=hidden;whiteSpace=wrap;html=1;" vertex="1" parent="VcVG_XtGqPVx2uecxMPq-60">
          <mxGeometry x="30" width="150" height="30" as="geometry">
            <mxRectangle width="150" height="30" as="alternateBounds" />
          </mxGeometry>
        </mxCell>
        <mxCell id="VcVG_XtGqPVx2uecxMPq-63" value="" style="shape=tableRow;horizontal=0;startSize=0;swimlaneHead=0;swimlaneBody=0;fillColor=none;collapsible=0;dropTarget=0;points=[[0,0.5],[1,0.5]];portConstraint=eastwest;top=0;left=0;right=0;bottom=0;" vertex="1" parent="VcVG_XtGqPVx2uecxMPq-59">
          <mxGeometry y="120" width="180" height="30" as="geometry" />
        </mxCell>
        <mxCell id="VcVG_XtGqPVx2uecxMPq-64" value="" style="shape=partialRectangle;connectable=0;fillColor=none;top=0;left=0;bottom=0;right=0;editable=1;overflow=hidden;whiteSpace=wrap;html=1;" vertex="1" parent="VcVG_XtGqPVx2uecxMPq-63">
          <mxGeometry width="30" height="30" as="geometry">
            <mxRectangle width="30" height="30" as="alternateBounds" />
          </mxGeometry>
        </mxCell>
        <mxCell id="VcVG_XtGqPVx2uecxMPq-65" value="title" style="shape=partialRectangle;connectable=0;fillColor=none;top=0;left=0;bottom=0;right=0;align=left;spacingLeft=6;overflow=hidden;whiteSpace=wrap;html=1;" vertex="1" parent="VcVG_XtGqPVx2uecxMPq-63">
          <mxGeometry x="30" width="150" height="30" as="geometry">
            <mxRectangle width="150" height="30" as="alternateBounds" />
          </mxGeometry>
        </mxCell>
        <mxCell id="VcVG_XtGqPVx2uecxMPq-66" value="" style="shape=tableRow;horizontal=0;startSize=0;swimlaneHead=0;swimlaneBody=0;fillColor=none;collapsible=0;dropTarget=0;points=[[0,0.5],[1,0.5]];portConstraint=eastwest;top=0;left=0;right=0;bottom=0;" vertex="1" parent="VcVG_XtGqPVx2uecxMPq-59">
          <mxGeometry y="150" width="180" height="30" as="geometry" />
        </mxCell>
        <mxCell id="VcVG_XtGqPVx2uecxMPq-67" value="" style="shape=partialRectangle;connectable=0;fillColor=none;top=0;left=0;bottom=0;right=0;editable=1;overflow=hidden;whiteSpace=wrap;html=1;" vertex="1" parent="VcVG_XtGqPVx2uecxMPq-66">
          <mxGeometry width="30" height="30" as="geometry">
            <mxRectangle width="30" height="30" as="alternateBounds" />
          </mxGeometry>
        </mxCell>
        <mxCell id="VcVG_XtGqPVx2uecxMPq-68" value="contents" style="shape=partialRectangle;connectable=0;fillColor=none;top=0;left=0;bottom=0;right=0;align=left;spacingLeft=6;overflow=hidden;whiteSpace=wrap;html=1;" vertex="1" parent="VcVG_XtGqPVx2uecxMPq-66">
          <mxGeometry x="30" width="150" height="30" as="geometry">
            <mxRectangle width="150" height="30" as="alternateBounds" />
          </mxGeometry>
        </mxCell>
        <mxCell id="VcVG_XtGqPVx2uecxMPq-72" value="" style="shape=tableRow;horizontal=0;startSize=0;swimlaneHead=0;swimlaneBody=0;fillColor=none;collapsible=0;dropTarget=0;points=[[0,0.5],[1,0.5]];portConstraint=eastwest;top=0;left=0;right=0;bottom=0;" vertex="1" parent="VcVG_XtGqPVx2uecxMPq-59">
          <mxGeometry y="180" width="180" height="30" as="geometry" />
        </mxCell>
        <mxCell id="VcVG_XtGqPVx2uecxMPq-73" value="" style="shape=partialRectangle;connectable=0;fillColor=none;top=0;left=0;bottom=0;right=0;editable=1;overflow=hidden;whiteSpace=wrap;html=1;" vertex="1" parent="VcVG_XtGqPVx2uecxMPq-72">
          <mxGeometry width="30" height="30" as="geometry">
            <mxRectangle width="30" height="30" as="alternateBounds" />
          </mxGeometry>
        </mxCell>
        <mxCell id="VcVG_XtGqPVx2uecxMPq-74" value="category" style="shape=partialRectangle;connectable=0;fillColor=none;top=0;left=0;bottom=0;right=0;align=left;spacingLeft=6;overflow=hidden;whiteSpace=wrap;html=1;" vertex="1" parent="VcVG_XtGqPVx2uecxMPq-72">
          <mxGeometry x="30" width="150" height="30" as="geometry">
            <mxRectangle width="150" height="30" as="alternateBounds" />
          </mxGeometry>
        </mxCell>
        <mxCell id="VcVG_XtGqPVx2uecxMPq-75" value="" style="shape=tableRow;horizontal=0;startSize=0;swimlaneHead=0;swimlaneBody=0;fillColor=none;collapsible=0;dropTarget=0;points=[[0,0.5],[1,0.5]];portConstraint=eastwest;top=0;left=0;right=0;bottom=0;" vertex="1" parent="VcVG_XtGqPVx2uecxMPq-59">
          <mxGeometry y="210" width="180" height="30" as="geometry" />
        </mxCell>
        <mxCell id="VcVG_XtGqPVx2uecxMPq-76" value="" style="shape=partialRectangle;connectable=0;fillColor=none;top=0;left=0;bottom=0;right=0;editable=1;overflow=hidden;whiteSpace=wrap;html=1;" vertex="1" parent="VcVG_XtGqPVx2uecxMPq-75">
          <mxGeometry width="30" height="30" as="geometry">
            <mxRectangle width="30" height="30" as="alternateBounds" />
          </mxGeometry>
        </mxCell>
        <mxCell id="VcVG_XtGqPVx2uecxMPq-77" value="createat" style="shape=partialRectangle;connectable=0;fillColor=none;top=0;left=0;bottom=0;right=0;align=left;spacingLeft=6;overflow=hidden;whiteSpace=wrap;html=1;" vertex="1" parent="VcVG_XtGqPVx2uecxMPq-75">
          <mxGeometry x="30" width="150" height="30" as="geometry">
            <mxRectangle width="150" height="30" as="alternateBounds" />
          </mxGeometry>
        </mxCell>
        <mxCell id="VcVG_XtGqPVx2uecxMPq-78" value="" style="shape=tableRow;horizontal=0;startSize=0;swimlaneHead=0;swimlaneBody=0;fillColor=none;collapsible=0;dropTarget=0;points=[[0,0.5],[1,0.5]];portConstraint=eastwest;top=0;left=0;right=0;bottom=0;" vertex="1" parent="VcVG_XtGqPVx2uecxMPq-59">
          <mxGeometry y="240" width="180" height="30" as="geometry" />
        </mxCell>
        <mxCell id="VcVG_XtGqPVx2uecxMPq-79" value="" style="shape=partialRectangle;connectable=0;fillColor=none;top=0;left=0;bottom=0;right=0;editable=1;overflow=hidden;whiteSpace=wrap;html=1;" vertex="1" parent="VcVG_XtGqPVx2uecxMPq-78">
          <mxGeometry width="30" height="30" as="geometry">
            <mxRectangle width="30" height="30" as="alternateBounds" />
          </mxGeometry>
        </mxCell>
        <mxCell id="VcVG_XtGqPVx2uecxMPq-80" value="view" style="shape=partialRectangle;connectable=0;fillColor=none;top=0;left=0;bottom=0;right=0;align=left;spacingLeft=6;overflow=hidden;whiteSpace=wrap;html=1;" vertex="1" parent="VcVG_XtGqPVx2uecxMPq-78">
          <mxGeometry x="30" width="150" height="30" as="geometry">
            <mxRectangle width="150" height="30" as="alternateBounds" />
          </mxGeometry>
        </mxCell>
        <mxCell id="VcVG_XtGqPVx2uecxMPq-85" value="id" style="ellipse;whiteSpace=wrap;html=1;align=center;fontStyle=4;" vertex="1" parent="1">
          <mxGeometry x="1260" y="750" width="100" height="40" as="geometry" />
        </mxCell>
        <mxCell id="VcVG_XtGqPVx2uecxMPq-86" value="name" style="ellipse;whiteSpace=wrap;html=1;align=center;" vertex="1" parent="1">
          <mxGeometry x="1410" y="830" width="100" height="40" as="geometry" />
        </mxCell>
        <mxCell id="VcVG_XtGqPVx2uecxMPq-88" value="" style="endArrow=none;html=1;rounded=0;exitX=0.25;exitY=0;exitDx=0;exitDy=0;entryX=0.5;entryY=1;entryDx=0;entryDy=0;" edge="1" parent="1" source="VcVG_XtGqPVx2uecxMPq-3" target="VcVG_XtGqPVx2uecxMPq-85">
          <mxGeometry relative="1" as="geometry">
            <mxPoint x="1110" y="788.46" as="sourcePoint" />
            <mxPoint x="1270" y="788.46" as="targetPoint" />
          </mxGeometry>
        </mxCell>
        <mxCell id="VcVG_XtGqPVx2uecxMPq-89" value="" style="endArrow=none;html=1;rounded=0;exitX=1;exitY=0.5;exitDx=0;exitDy=0;entryX=0;entryY=0.5;entryDx=0;entryDy=0;" edge="1" parent="1" source="VcVG_XtGqPVx2uecxMPq-3" target="VcVG_XtGqPVx2uecxMPq-86">
          <mxGeometry relative="1" as="geometry">
            <mxPoint x="1280" y="940" as="sourcePoint" />
            <mxPoint x="1440" y="940" as="targetPoint" />
          </mxGeometry>
        </mxCell>
        <mxCell id="VcVG_XtGqPVx2uecxMPq-90" value="categories" style="shape=table;startSize=30;container=1;collapsible=1;childLayout=tableLayout;fixedRows=1;rowLines=0;fontStyle=1;align=center;resizeLast=1;html=1;" vertex="1" parent="1">
          <mxGeometry x="870" y="740" width="180" height="90" as="geometry" />
        </mxCell>
        <mxCell id="VcVG_XtGqPVx2uecxMPq-91" value="" style="shape=tableRow;horizontal=0;startSize=0;swimlaneHead=0;swimlaneBody=0;fillColor=none;collapsible=0;dropTarget=0;points=[[0,0.5],[1,0.5]];portConstraint=eastwest;top=0;left=0;right=0;bottom=1;" vertex="1" parent="VcVG_XtGqPVx2uecxMPq-90">
          <mxGeometry y="30" width="180" height="30" as="geometry" />
        </mxCell>
        <mxCell id="VcVG_XtGqPVx2uecxMPq-92" value="PK" style="shape=partialRectangle;connectable=0;fillColor=none;top=0;left=0;bottom=0;right=0;fontStyle=1;overflow=hidden;whiteSpace=wrap;html=1;" vertex="1" parent="VcVG_XtGqPVx2uecxMPq-91">
          <mxGeometry width="30" height="30" as="geometry">
            <mxRectangle width="30" height="30" as="alternateBounds" />
          </mxGeometry>
        </mxCell>
        <mxCell id="VcVG_XtGqPVx2uecxMPq-93" value="id" style="shape=partialRectangle;connectable=0;fillColor=none;top=0;left=0;bottom=0;right=0;align=left;spacingLeft=6;fontStyle=5;overflow=hidden;whiteSpace=wrap;html=1;" vertex="1" parent="VcVG_XtGqPVx2uecxMPq-91">
          <mxGeometry x="30" width="150" height="30" as="geometry">
            <mxRectangle width="150" height="30" as="alternateBounds" />
          </mxGeometry>
        </mxCell>
        <mxCell id="VcVG_XtGqPVx2uecxMPq-94" value="" style="shape=tableRow;horizontal=0;startSize=0;swimlaneHead=0;swimlaneBody=0;fillColor=none;collapsible=0;dropTarget=0;points=[[0,0.5],[1,0.5]];portConstraint=eastwest;top=0;left=0;right=0;bottom=0;" vertex="1" parent="VcVG_XtGqPVx2uecxMPq-90">
          <mxGeometry y="60" width="180" height="30" as="geometry" />
        </mxCell>
        <mxCell id="VcVG_XtGqPVx2uecxMPq-95" value="" style="shape=partialRectangle;connectable=0;fillColor=none;top=0;left=0;bottom=0;right=0;editable=1;overflow=hidden;whiteSpace=wrap;html=1;" vertex="1" parent="VcVG_XtGqPVx2uecxMPq-94">
          <mxGeometry width="30" height="30" as="geometry">
            <mxRectangle width="30" height="30" as="alternateBounds" />
          </mxGeometry>
        </mxCell>
        <mxCell id="VcVG_XtGqPVx2uecxMPq-96" value="name" style="shape=partialRectangle;connectable=0;fillColor=none;top=0;left=0;bottom=0;right=0;align=left;spacingLeft=6;overflow=hidden;whiteSpace=wrap;html=1;" vertex="1" parent="VcVG_XtGqPVx2uecxMPq-94">
          <mxGeometry x="30" width="150" height="30" as="geometry">
            <mxRectangle width="150" height="30" as="alternateBounds" />
          </mxGeometry>
        </mxCell>
        <mxCell id="VcVG_XtGqPVx2uecxMPq-104" value="posts_id(FK)" style="ellipse;whiteSpace=wrap;html=1;align=center;" vertex="1" parent="1">
          <mxGeometry x="1090" y="1050" width="100" height="40" as="geometry" />
        </mxCell>
        <mxCell id="VcVG_XtGqPVx2uecxMPq-106" value="users_id(FK)" style="ellipse;whiteSpace=wrap;html=1;align=center;" vertex="1" parent="1">
          <mxGeometry x="1440" y="1050" width="100" height="40" as="geometry" />
        </mxCell>
        <mxCell id="VcVG_XtGqPVx2uecxMPq-107" value="" style="endArrow=none;html=1;rounded=0;exitX=1;exitY=0.5;exitDx=0;exitDy=0;entryX=0;entryY=0.5;entryDx=0;entryDy=0;" edge="1" parent="1" source="VcVG_XtGqPVx2uecxMPq-104" target="VcVG_XtGqPVx2uecxMPq-4">
          <mxGeometry relative="1" as="geometry">
            <mxPoint x="1290" y="941" as="sourcePoint" />
            <mxPoint x="1320" y="911" as="targetPoint" />
          </mxGeometry>
        </mxCell>
        <mxCell id="VcVG_XtGqPVx2uecxMPq-108" value="" style="endArrow=none;html=1;rounded=0;exitX=1;exitY=0.5;exitDx=0;exitDy=0;entryX=0;entryY=0.5;entryDx=0;entryDy=0;" edge="1" parent="1" source="VcVG_XtGqPVx2uecxMPq-4" target="VcVG_XtGqPVx2uecxMPq-106">
          <mxGeometry relative="1" as="geometry">
            <mxPoint x="1380" y="1069.23" as="sourcePoint" />
            <mxPoint x="1450" y="1040" as="targetPoint" />
          </mxGeometry>
        </mxCell>
        <mxCell id="VcVG_XtGqPVx2uecxMPq-110" value="views" style="shape=table;startSize=30;container=1;collapsible=1;childLayout=tableLayout;fixedRows=1;rowLines=0;fontStyle=1;align=center;resizeLast=1;html=1;" vertex="1" parent="1">
          <mxGeometry x="870" y="950" width="180" height="120" as="geometry" />
        </mxCell>
        <mxCell id="VcVG_XtGqPVx2uecxMPq-123" value="" style="shape=tableRow;horizontal=0;startSize=0;swimlaneHead=0;swimlaneBody=0;fillColor=none;collapsible=0;dropTarget=0;points=[[0,0.5],[1,0.5]];portConstraint=eastwest;top=0;left=0;right=0;bottom=1;" vertex="1" parent="VcVG_XtGqPVx2uecxMPq-110">
          <mxGeometry y="30" width="180" height="30" as="geometry" />
        </mxCell>
        <mxCell id="VcVG_XtGqPVx2uecxMPq-124" value="PK" style="shape=partialRectangle;connectable=0;fillColor=none;top=0;left=0;bottom=0;right=0;fontStyle=1;overflow=hidden;whiteSpace=wrap;html=1;" vertex="1" parent="VcVG_XtGqPVx2uecxMPq-123">
          <mxGeometry width="30" height="30" as="geometry">
            <mxRectangle width="30" height="30" as="alternateBounds" />
          </mxGeometry>
        </mxCell>
        <mxCell id="VcVG_XtGqPVx2uecxMPq-125" value="id" style="shape=partialRectangle;connectable=0;fillColor=none;top=0;left=0;bottom=0;right=0;align=left;spacingLeft=6;fontStyle=5;overflow=hidden;whiteSpace=wrap;html=1;" vertex="1" parent="VcVG_XtGqPVx2uecxMPq-123">
          <mxGeometry x="30" width="150" height="30" as="geometry">
            <mxRectangle width="150" height="30" as="alternateBounds" />
          </mxGeometry>
        </mxCell>
        <mxCell id="VcVG_XtGqPVx2uecxMPq-126" value="" style="shape=tableRow;horizontal=0;startSize=0;swimlaneHead=0;swimlaneBody=0;fillColor=none;collapsible=0;dropTarget=0;points=[[0,0.5],[1,0.5]];portConstraint=eastwest;top=0;left=0;right=0;bottom=1;" vertex="1" parent="VcVG_XtGqPVx2uecxMPq-110">
          <mxGeometry y="60" width="180" height="30" as="geometry" />
        </mxCell>
        <mxCell id="VcVG_XtGqPVx2uecxMPq-127" value="FK" style="shape=partialRectangle;connectable=0;fillColor=none;top=0;left=0;bottom=0;right=0;fontStyle=1;overflow=hidden;whiteSpace=wrap;html=1;" vertex="1" parent="VcVG_XtGqPVx2uecxMPq-126">
          <mxGeometry width="30" height="30" as="geometry">
            <mxRectangle width="30" height="30" as="alternateBounds" />
          </mxGeometry>
        </mxCell>
        <mxCell id="VcVG_XtGqPVx2uecxMPq-128" value="users_id" style="shape=partialRectangle;connectable=0;fillColor=none;top=0;left=0;bottom=0;right=0;align=left;spacingLeft=6;fontStyle=5;overflow=hidden;whiteSpace=wrap;html=1;" vertex="1" parent="VcVG_XtGqPVx2uecxMPq-126">
          <mxGeometry x="30" width="150" height="30" as="geometry">
            <mxRectangle width="150" height="30" as="alternateBounds" />
          </mxGeometry>
        </mxCell>
        <mxCell id="VcVG_XtGqPVx2uecxMPq-111" value="" style="shape=tableRow;horizontal=0;startSize=0;swimlaneHead=0;swimlaneBody=0;fillColor=none;collapsible=0;dropTarget=0;points=[[0,0.5],[1,0.5]];portConstraint=eastwest;top=0;left=0;right=0;bottom=1;" vertex="1" parent="VcVG_XtGqPVx2uecxMPq-110">
          <mxGeometry y="90" width="180" height="30" as="geometry" />
        </mxCell>
        <mxCell id="VcVG_XtGqPVx2uecxMPq-112" value="FK" style="shape=partialRectangle;connectable=0;fillColor=none;top=0;left=0;bottom=0;right=0;fontStyle=1;overflow=hidden;whiteSpace=wrap;html=1;" vertex="1" parent="VcVG_XtGqPVx2uecxMPq-111">
          <mxGeometry width="30" height="30" as="geometry">
            <mxRectangle width="30" height="30" as="alternateBounds" />
          </mxGeometry>
        </mxCell>
        <mxCell id="VcVG_XtGqPVx2uecxMPq-113" value="posts_id" style="shape=partialRectangle;connectable=0;fillColor=none;top=0;left=0;bottom=0;right=0;align=left;spacingLeft=6;fontStyle=5;overflow=hidden;whiteSpace=wrap;html=1;" vertex="1" parent="VcVG_XtGqPVx2uecxMPq-111">
          <mxGeometry x="30" width="150" height="30" as="geometry">
            <mxRectangle width="150" height="30" as="alternateBounds" />
          </mxGeometry>
        </mxCell>
        <mxCell id="VcVG_XtGqPVx2uecxMPq-129" value="id" style="ellipse;whiteSpace=wrap;html=1;align=center;fontStyle=4;" vertex="1" parent="1">
          <mxGeometry x="1270" y="940" width="100" height="40" as="geometry" />
        </mxCell>
        <mxCell id="VcVG_XtGqPVx2uecxMPq-132" value="" style="endArrow=none;html=1;rounded=0;exitX=0.5;exitY=1;exitDx=0;exitDy=0;entryX=0.5;entryY=0;entryDx=0;entryDy=0;" edge="1" parent="1" source="VcVG_XtGqPVx2uecxMPq-129" target="VcVG_XtGqPVx2uecxMPq-4">
          <mxGeometry relative="1" as="geometry">
            <mxPoint x="1380" y="903" as="sourcePoint" />
            <mxPoint x="1420" y="903" as="targetPoint" />
          </mxGeometry>
        </mxCell>
        <mxCell id="VcVG_XtGqPVx2uecxMPq-139" value="id" style="ellipse;whiteSpace=wrap;html=1;align=center;fontStyle=4;" vertex="1" parent="1">
          <mxGeometry x="1270" y="1190" width="100" height="40" as="geometry" />
        </mxCell>
        <mxCell id="VcVG_XtGqPVx2uecxMPq-140" value="" style="endArrow=none;html=1;rounded=0;exitX=0.5;exitY=1;exitDx=0;exitDy=0;entryX=0.5;entryY=0;entryDx=0;entryDy=0;" edge="1" source="VcVG_XtGqPVx2uecxMPq-139" parent="1" target="VcVG_XtGqPVx2uecxMPq-5">
          <mxGeometry relative="1" as="geometry">
            <mxPoint x="1380" y="1153" as="sourcePoint" />
            <mxPoint x="1290" y="1270" as="targetPoint" />
          </mxGeometry>
        </mxCell>
        <mxCell id="VcVG_XtGqPVx2uecxMPq-142" value="tag" style="ellipse;whiteSpace=wrap;html=1;align=center;" vertex="1" parent="1">
          <mxGeometry x="1440" y="1300" width="100" height="40" as="geometry" />
        </mxCell>
        <mxCell id="VcVG_XtGqPVx2uecxMPq-145" value="" style="endArrow=none;html=1;rounded=0;entryX=0;entryY=0.5;entryDx=0;entryDy=0;exitX=1;exitY=0.5;exitDx=0;exitDy=0;" edge="1" parent="1" source="VcVG_XtGqPVx2uecxMPq-5" target="VcVG_XtGqPVx2uecxMPq-142">
          <mxGeometry relative="1" as="geometry">
            <mxPoint x="1450" y="1420" as="sourcePoint" />
            <mxPoint x="1420" y="1390" as="targetPoint" />
          </mxGeometry>
        </mxCell>
        <mxCell id="VcVG_XtGqPVx2uecxMPq-151" value="likes" style="rounded=0;whiteSpace=wrap;html=1;" vertex="1" parent="1">
          <mxGeometry x="1260" y="1590" width="120" height="60" as="geometry" />
        </mxCell>
        <mxCell id="VcVG_XtGqPVx2uecxMPq-152" value="id" style="ellipse;whiteSpace=wrap;html=1;align=center;fontStyle=4;" vertex="1" parent="1">
          <mxGeometry x="1270" y="1490" width="100" height="40" as="geometry" />
        </mxCell>
        <mxCell id="VcVG_XtGqPVx2uecxMPq-153" value="" style="endArrow=none;html=1;rounded=0;exitX=0.5;exitY=1;exitDx=0;exitDy=0;entryX=0.5;entryY=0;entryDx=0;entryDy=0;" edge="1" parent="1" source="VcVG_XtGqPVx2uecxMPq-152" target="VcVG_XtGqPVx2uecxMPq-151">
          <mxGeometry relative="1" as="geometry">
            <mxPoint x="1380" y="1453" as="sourcePoint" />
            <mxPoint x="1290" y="1570" as="targetPoint" />
          </mxGeometry>
        </mxCell>
        <mxCell id="VcVG_XtGqPVx2uecxMPq-154" value="users_id(FK)" style="ellipse;whiteSpace=wrap;html=1;align=center;" vertex="1" parent="1">
          <mxGeometry x="1440" y="1600" width="100" height="40" as="geometry" />
        </mxCell>
        <mxCell id="VcVG_XtGqPVx2uecxMPq-155" value="" style="endArrow=none;html=1;rounded=0;entryX=0;entryY=0.5;entryDx=0;entryDy=0;exitX=1;exitY=0.5;exitDx=0;exitDy=0;" edge="1" parent="1" source="VcVG_XtGqPVx2uecxMPq-151" target="VcVG_XtGqPVx2uecxMPq-154">
          <mxGeometry relative="1" as="geometry">
            <mxPoint x="1450" y="1720" as="sourcePoint" />
            <mxPoint x="1420" y="1690" as="targetPoint" />
          </mxGeometry>
        </mxCell>
        <mxCell id="VcVG_XtGqPVx2uecxMPq-156" value="posts_id(FK)" style="ellipse;whiteSpace=wrap;html=1;align=center;" vertex="1" parent="1">
          <mxGeometry x="1270" y="1720" width="100" height="40" as="geometry" />
        </mxCell>
        <mxCell id="VcVG_XtGqPVx2uecxMPq-157" value="hashtags" style="shape=table;startSize=30;container=1;collapsible=1;childLayout=tableLayout;fixedRows=1;rowLines=0;fontStyle=1;align=center;resizeLast=1;html=1;" vertex="1" parent="1">
          <mxGeometry x="870" y="1190" width="180" height="90" as="geometry" />
        </mxCell>
        <mxCell id="VcVG_XtGqPVx2uecxMPq-158" value="" style="shape=tableRow;horizontal=0;startSize=0;swimlaneHead=0;swimlaneBody=0;fillColor=none;collapsible=0;dropTarget=0;points=[[0,0.5],[1,0.5]];portConstraint=eastwest;top=0;left=0;right=0;bottom=1;" vertex="1" parent="VcVG_XtGqPVx2uecxMPq-157">
          <mxGeometry y="30" width="180" height="30" as="geometry" />
        </mxCell>
        <mxCell id="VcVG_XtGqPVx2uecxMPq-159" value="PK" style="shape=partialRectangle;connectable=0;fillColor=none;top=0;left=0;bottom=0;right=0;fontStyle=1;overflow=hidden;whiteSpace=wrap;html=1;" vertex="1" parent="VcVG_XtGqPVx2uecxMPq-158">
          <mxGeometry width="30" height="30" as="geometry">
            <mxRectangle width="30" height="30" as="alternateBounds" />
          </mxGeometry>
        </mxCell>
        <mxCell id="VcVG_XtGqPVx2uecxMPq-160" value="id" style="shape=partialRectangle;connectable=0;fillColor=none;top=0;left=0;bottom=0;right=0;align=left;spacingLeft=6;fontStyle=5;overflow=hidden;whiteSpace=wrap;html=1;" vertex="1" parent="VcVG_XtGqPVx2uecxMPq-158">
          <mxGeometry x="30" width="150" height="30" as="geometry">
            <mxRectangle width="150" height="30" as="alternateBounds" />
          </mxGeometry>
        </mxCell>
        <mxCell id="VcVG_XtGqPVx2uecxMPq-161" value="" style="shape=tableRow;horizontal=0;startSize=0;swimlaneHead=0;swimlaneBody=0;fillColor=none;collapsible=0;dropTarget=0;points=[[0,0.5],[1,0.5]];portConstraint=eastwest;top=0;left=0;right=0;bottom=0;" vertex="1" parent="VcVG_XtGqPVx2uecxMPq-157">
          <mxGeometry y="60" width="180" height="30" as="geometry" />
        </mxCell>
        <mxCell id="VcVG_XtGqPVx2uecxMPq-162" value="" style="shape=partialRectangle;connectable=0;fillColor=none;top=0;left=0;bottom=0;right=0;editable=1;overflow=hidden;whiteSpace=wrap;html=1;" vertex="1" parent="VcVG_XtGqPVx2uecxMPq-161">
          <mxGeometry width="30" height="30" as="geometry">
            <mxRectangle width="30" height="30" as="alternateBounds" />
          </mxGeometry>
        </mxCell>
        <mxCell id="VcVG_XtGqPVx2uecxMPq-163" value="tag" style="shape=partialRectangle;connectable=0;fillColor=none;top=0;left=0;bottom=0;right=0;align=left;spacingLeft=6;overflow=hidden;whiteSpace=wrap;html=1;" vertex="1" parent="VcVG_XtGqPVx2uecxMPq-161">
          <mxGeometry x="30" width="150" height="30" as="geometry">
            <mxRectangle width="150" height="30" as="alternateBounds" />
          </mxGeometry>
        </mxCell>
        <mxCell id="VcVG_XtGqPVx2uecxMPq-170" value="likes" style="shape=table;startSize=30;container=1;collapsible=1;childLayout=tableLayout;fixedRows=1;rowLines=0;fontStyle=1;align=center;resizeLast=1;html=1;" vertex="1" parent="1">
          <mxGeometry x="870" y="1490" width="180" height="120" as="geometry" />
        </mxCell>
        <mxCell id="VcVG_XtGqPVx2uecxMPq-184" value="" style="shape=tableRow;horizontal=0;startSize=0;swimlaneHead=0;swimlaneBody=0;fillColor=none;collapsible=0;dropTarget=0;points=[[0,0.5],[1,0.5]];portConstraint=eastwest;top=0;left=0;right=0;bottom=1;" vertex="1" parent="VcVG_XtGqPVx2uecxMPq-170">
          <mxGeometry y="30" width="180" height="30" as="geometry" />
        </mxCell>
        <mxCell id="VcVG_XtGqPVx2uecxMPq-185" value="PK" style="shape=partialRectangle;connectable=0;fillColor=none;top=0;left=0;bottom=0;right=0;fontStyle=1;overflow=hidden;whiteSpace=wrap;html=1;" vertex="1" parent="VcVG_XtGqPVx2uecxMPq-184">
          <mxGeometry width="30" height="30" as="geometry">
            <mxRectangle width="30" height="30" as="alternateBounds" />
          </mxGeometry>
        </mxCell>
        <mxCell id="VcVG_XtGqPVx2uecxMPq-186" value="id" style="shape=partialRectangle;connectable=0;fillColor=none;top=0;left=0;bottom=0;right=0;align=left;spacingLeft=6;fontStyle=5;overflow=hidden;whiteSpace=wrap;html=1;" vertex="1" parent="VcVG_XtGqPVx2uecxMPq-184">
          <mxGeometry x="30" width="150" height="30" as="geometry">
            <mxRectangle width="150" height="30" as="alternateBounds" />
          </mxGeometry>
        </mxCell>
        <mxCell id="VcVG_XtGqPVx2uecxMPq-187" value="" style="shape=tableRow;horizontal=0;startSize=0;swimlaneHead=0;swimlaneBody=0;fillColor=none;collapsible=0;dropTarget=0;points=[[0,0.5],[1,0.5]];portConstraint=eastwest;top=0;left=0;right=0;bottom=1;" vertex="1" parent="VcVG_XtGqPVx2uecxMPq-170">
          <mxGeometry y="60" width="180" height="30" as="geometry" />
        </mxCell>
        <mxCell id="VcVG_XtGqPVx2uecxMPq-188" value="FK" style="shape=partialRectangle;connectable=0;fillColor=none;top=0;left=0;bottom=0;right=0;fontStyle=1;overflow=hidden;whiteSpace=wrap;html=1;" vertex="1" parent="VcVG_XtGqPVx2uecxMPq-187">
          <mxGeometry width="30" height="30" as="geometry">
            <mxRectangle width="30" height="30" as="alternateBounds" />
          </mxGeometry>
        </mxCell>
        <mxCell id="VcVG_XtGqPVx2uecxMPq-189" value="users_id" style="shape=partialRectangle;connectable=0;fillColor=none;top=0;left=0;bottom=0;right=0;align=left;spacingLeft=6;fontStyle=5;overflow=hidden;whiteSpace=wrap;html=1;" vertex="1" parent="VcVG_XtGqPVx2uecxMPq-187">
          <mxGeometry x="30" width="150" height="30" as="geometry">
            <mxRectangle width="150" height="30" as="alternateBounds" />
          </mxGeometry>
        </mxCell>
        <mxCell id="VcVG_XtGqPVx2uecxMPq-171" value="" style="shape=tableRow;horizontal=0;startSize=0;swimlaneHead=0;swimlaneBody=0;fillColor=none;collapsible=0;dropTarget=0;points=[[0,0.5],[1,0.5]];portConstraint=eastwest;top=0;left=0;right=0;bottom=1;" vertex="1" parent="VcVG_XtGqPVx2uecxMPq-170">
          <mxGeometry y="90" width="180" height="30" as="geometry" />
        </mxCell>
        <mxCell id="VcVG_XtGqPVx2uecxMPq-172" value="FK" style="shape=partialRectangle;connectable=0;fillColor=none;top=0;left=0;bottom=0;right=0;fontStyle=1;overflow=hidden;whiteSpace=wrap;html=1;" vertex="1" parent="VcVG_XtGqPVx2uecxMPq-171">
          <mxGeometry width="30" height="30" as="geometry">
            <mxRectangle width="30" height="30" as="alternateBounds" />
          </mxGeometry>
        </mxCell>
        <mxCell id="VcVG_XtGqPVx2uecxMPq-173" value="posts_id" style="shape=partialRectangle;connectable=0;fillColor=none;top=0;left=0;bottom=0;right=0;align=left;spacingLeft=6;fontStyle=5;overflow=hidden;whiteSpace=wrap;html=1;" vertex="1" parent="VcVG_XtGqPVx2uecxMPq-171">
          <mxGeometry x="30" width="150" height="30" as="geometry">
            <mxRectangle width="150" height="30" as="alternateBounds" />
          </mxGeometry>
        </mxCell>
        <mxCell id="VcVG_XtGqPVx2uecxMPq-183" value="" style="endArrow=none;html=1;rounded=0;entryX=0.5;entryY=0;entryDx=0;entryDy=0;exitX=0.5;exitY=1;exitDx=0;exitDy=0;" edge="1" parent="1" source="VcVG_XtGqPVx2uecxMPq-151" target="VcVG_XtGqPVx2uecxMPq-156">
          <mxGeometry relative="1" as="geometry">
            <mxPoint x="1330" y="1670" as="sourcePoint" />
            <mxPoint x="1360" y="1680" as="targetPoint" />
          </mxGeometry>
        </mxCell>
        <mxCell id="VcVG_XtGqPVx2uecxMPq-190" value="posts_hashtags" style="rounded=0;whiteSpace=wrap;html=1;" vertex="1" parent="1">
          <mxGeometry x="1260" y="2410" width="120" height="60" as="geometry" />
        </mxCell>
        <mxCell id="VcVG_XtGqPVx2uecxMPq-191" value="users_id(FK)" style="ellipse;whiteSpace=wrap;html=1;align=center;" vertex="1" parent="1">
          <mxGeometry x="1090" y="2420" width="100" height="40" as="geometry" />
        </mxCell>
        <mxCell id="VcVG_XtGqPVx2uecxMPq-192" value="hashtags_id(FK)" style="ellipse;whiteSpace=wrap;html=1;align=center;" vertex="1" parent="1">
          <mxGeometry x="1270" y="2540" width="100" height="40" as="geometry" />
        </mxCell>
      </root>
    </mxGraphModel>
  </diagram>
</mxfile>
